<?xml version="1.0" standalone="no"?>
<!DOCTYPE svg PUBLIC "-//W3C//DTD SVG 20010904//EN"
 "http://www.w3.org/TR/2001/REC-SVG-20010904/DTD/svg10.dtd">
<svg version="1.0" xmlns="http://www.w3.org/2000/svg"
 width="85.000000pt" height="85.000000pt" viewBox="0 0 85.000000 85.000000"
 preserveAspectRatio="xMidYMid meet">

<g transform="translate(0.000000,85.000000) scale(0.100000,-0.100000)"
fill="#000000" stroke="none">
<path d="M108 702 c-22 -24 -78 -114 -78 -125 0 -5 149 3 168 8 7 3 14 3 15 2
2 -1 12 6 22 17 18 18 19 18 32 0 12 -16 13 -15 13 14 0 30 -2 31 -30 26 -19
-4 -30 -2 -30 5 0 6 -7 11 -15 11 -8 0 -15 4 -15 9 0 5 42 9 93 10 l92 0 0
-37 0 -37 50 1 c94 3 123 13 127 44 3 22 0 30 -16 35 -21 6 -21 6 -1 15 18 7
18 9 3 15 -9 3 -25 2 -35 -3 -10 -5 -88 -10 -172 -11 -85 -1 -159 -4 -163 -7
-4 -3 -8 1 -8 9 0 27 -27 26 -52 -1z"/>
<path d="M170 723 c0 -5 11 -9 25 -9 14 -1 22 2 19 7 -6 11 -44 12 -44 2z"/>
<path d="M580 712 c0 -5 14 -7 30 -4 17 2 30 6 30 8 0 2 -13 4 -30 4 -16 0
-30 -4 -30 -8z"/>
<path d="M735 680 c-9 -15 -1 -23 21 -18 15 3 16 4 1 16 -11 9 -17 10 -22 2z"/>
<path d="M736 630 c7 -7 19 -7 35 -1 23 9 22 10 -10 10 -24 1 -32 -2 -25 -9z"/>
<path d="M365 569 c-22 -4 -58 -9 -80 -10 -30 -1 -33 -3 -13 -6 24 -4 26 -7
18 -29 -16 -40 -12 -77 11 -109 12 -16 19 -23 16 -14 -4 12 1 17 20 17 30 0
67 -34 59 -54 -8 -20 -33 -17 -49 6 -8 11 -16 17 -19 14 -3 -3 5 -17 18 -31
24 -26 28 -44 9 -45 -6 0 -15 9 -22 22 l-11 22 -17 -26 c-10 -14 -28 -29 -40
-32 -39 -10 -56 -38 -74 -124 l-18 -81 31 -23 c59 -44 183 -72 271 -61 51 6
53 7 60 43 l8 37 9 -27 c11 -31 16 -33 53 -16 28 13 32 38 14 103 -27 100 -70
157 -129 170 -15 3 -31 13 -34 21 -7 19 3 64 15 64 15 0 10 48 -6 54 -12 4
-13 11 -5 31 16 41 12 73 -9 85 -22 11 -29 11 -86 -1z m14 -127 c-36 -18 -48
-9 -25 17 15 16 22 18 36 8 17 -10 16 -12 -11 -25z m66 -32 c3 -5 1 -10 -4
-10 -6 0 -11 5 -11 10 0 6 2 10 4 10 3 0 8 -4 11 -10z m-45 -125 c0 -2 -9 -19
-20 -37 -14 -23 -20 -28 -20 -15 0 23 18 57 30 57 6 0 10 -2 10 -5z"/>
<path d="M27 553 c-14 -13 -6 -23 16 -19 12 3 26 5 30 5 5 1 5 6 2 11 -7 11
-38 13 -48 3z"/>
<path d="M120 555 c0 -2 9 -9 20 -15 16 -9 20 -8 20 5 0 8 -9 15 -20 15 -11 0
-20 -2 -20 -5z"/>
</g>
</svg>
